<svg version="1.1" xmlns="http://www.w3.org/2000/svg" xmlns:xlink="http://www.w3.org/1999/xlink" width="141.9354" height="141.9354" viewBox="0,0,141.9354,141.9354"><g transform="translate(-169.0323,-109.0323)"><g data-paper-data="{&quot;isPaintingLayer&quot;:true}" fill-rule="nonzero" stroke="none" stroke-linejoin="miter" stroke-miterlimit="10" stroke-dasharray="" stroke-dashoffset="0" style="mix-blend-mode: normal"><path d="M189.81826,129.81826c27.71461,-27.71461 72.64886,-27.71462 100.36348,0c27.71461,27.71461 27.71462,72.64886 0,100.36348c-27.71461,27.71461 -72.64886,27.71462 -100.36348,0c-27.71461,-27.71461 -27.71462,-72.64886 0,-100.36348z" fill="#ffffff" stroke-width="NaN" stroke-linecap="butt"/><path d="M183.75,180c0,-31.06602 25.18398,-56.25 56.25,-56.25c31.06602,0 56.25,25.18398 56.25,56.25c0,31.06602 -25.18398,56.25 -56.25,56.25c-31.06602,0 -56.25,-25.18398 -56.25,-56.25z" fill="#6d12f5" stroke-width="0" stroke-linecap="butt"/><path d="M191.25,193c0,-26.92388 21.82612,-48.75 48.75,-48.75c26.92388,0 48.75,21.82612 48.75,48.75c0,26.92388 -21.82612,48.75 -48.75,48.75c-26.92388,0 -48.75,-21.82612 -48.75,-48.75z" fill="#ffffff" stroke-width="0" stroke-linecap="butt"/><path d="M240,164.81846c20.57261,0 37.25,7.06669 37.25,15.7839c0,8.71721 -16.67739,15.7839 -37.25,15.7839c-20.57261,0 -37.25,-7.06669 -37.25,-15.7839c0,-8.71721 16.67739,-15.7839 37.25,-15.7839z" data-paper-data="{&quot;index&quot;:null}" fill="#6d12f5" stroke-width="0" stroke-linecap="butt"/><path d="M240,163.61375c15.76084,0 28.53752,5.41385 28.53752,12.09217c0,6.67832 -12.77669,12.09217 -28.53752,12.09217c-15.76084,0 -28.53752,-5.41385 -28.53752,-12.09217c0,-6.67832 12.77669,-12.09217 28.53752,-12.09217z" data-paper-data="{&quot;index&quot;:null}" fill="#ffffff" stroke-width="0" stroke-linecap="butt"/><path d="M239.38246,220.79437c-0.45254,0 -0.71993,-0.22626 -0.80222,-0.6788l-1.60443,-8.45414c0,-0.08228 -0.04114,-0.14399 -0.12342,-0.18512c-0.08228,-0.08228 -0.16455,-0.12342 -0.24683,-0.12342h-12.03326c-0.08228,0 -0.16455,0.04114 -0.24684,0.12342c-0.08228,0.04114 -0.12342,0.10284 -0.12342,0.18512l-1.54272,8.45414c-0.04114,0.45254 -0.30854,0.6788 -0.80222,0.6788h-5.61552c-0.24683,0 -0.43196,-0.0617 -0.55538,-0.18512c-0.12342,-0.16455 -0.14399,-0.37026 -0.06171,-0.61709l10.9225,-50.10771c0.12342,-0.45254 0.41139,-0.6788 0.86393,-0.6788h6.54115c0.49367,0 0.76108,0.22626 0.80222,0.6788l11.04592,50.10771v0.12342c0,0.45254 -0.22626,0.6788 -0.6788,0.6788zM225.49794,205.49053c0,0.16455 0.06171,0.24684 0.18513,0.24684h9.81173c0.12342,0 0.18513,-0.08229 0.18513,-0.24684l-4.99843,-26.16462c-0.04114,-0.12342 -0.08228,-0.18513 -0.12342,-0.18513c-0.04114,0 -0.08228,0.06171 -0.12342,0.18513zM252.06885,220.79437c-0.49367,0 -0.74051,-0.24683 -0.74051,-0.74051v-50.10771c0,-0.49367 0.24684,-0.74051 0.74051,-0.74051h5.61552c0.49367,0 0.74051,0.24684 0.74051,0.74051v50.10771c0,0.49367 -0.24683,0.74051 -0.74051,0.74051z" fill="#6d12f5" stroke-width="1" stroke-linecap="square"/></g></g></svg>