<svg version="1.1" xmlns="http://www.w3.org/2000/svg" xmlns:xlink="http://www.w3.org/1999/xlink" width="141.9354" height="141.9354" viewBox="0,0,141.9354,141.9354"><g transform="translate(-169.03235,-109.0323)"><g data-paper-data="{&quot;isPaintingLayer&quot;:true}" stroke-linecap="butt" stroke-linejoin="miter" stroke-miterlimit="10" stroke-dasharray="" stroke-dashoffset="0" style="mix-blend-mode: normal"><path d="M169.03235,180c0,-39.19438 31.77331,-70.9677 70.9677,-70.9677c39.19438,0 70.9677,31.77331 70.9677,70.9677c0,39.19438 -31.77331,70.9677 -70.9677,70.9677c-39.19438,0 -70.9677,-31.77331 -70.9677,-70.9677z" fill="#4809a6" fill-rule="nonzero" stroke="none" stroke-width="NaN"/><path d="M236.50707,161.20207c33.32565,-6.12253 61.97962,-2.19374 64.0335,8.77407c-1.28708,0.35837 -18.51222,3.42296 -18.5289,3.33218c-1.40871,-7.6678 -21.42109,-10.41694 -44.69889,-6.14038c-23.2778,4.27656 -41.00619,13.95938 -39.59747,21.62718c0.00459,0.025 0.00937,0.04994 0.01436,0.07484c-0.15219,0.02237 -0.3063,0.04781 -0.46186,0.07639c-1.26058,0.23159 -15.80227,2.75964 -17.16577,3.01014c-0.11872,0.02181 -0.236,0.04502 -0.35165,0.06955c-1.74401,-10.95958 23.56966,-24.72691 56.75667,-30.82397z" fill="#ffffff" fill-rule="nonzero" stroke="none" stroke-width="0"/><path d="M202.01512,181c0,-20.97849 17.00643,-37.98492 37.98492,-37.98492c20.97849,0 37.98492,17.00643 37.98492,37.98492c0,20.97849 -17.00643,37.98492 -37.98492,37.98492c-20.97849,0 -37.98492,-17.00643 -37.98492,-37.98492z" fill="#4809a6" fill-rule="nonzero" stroke="none" stroke-width="NaN"/><path d="M208.51513,181.00001c0,-17.38864 14.09628,-31.48492 31.48492,-31.48492c17.38864,0 31.48492,14.09628 31.48492,31.48492c0,17.38864 -14.09628,31.48492 -31.48492,31.48492c-17.38864,0 -31.48492,-14.09628 -31.48492,-31.48492z" fill="#ffffff" fill-rule="nonzero" stroke="none" stroke-width="NaN"/><path d="M243.49302,205.79794c-33.32565,6.12253 -61.97962,2.19374 -64.03349,-8.77407c1.28707,-0.35837 18.51222,-3.42296 18.52889,-3.33218c1.40872,7.6678 21.42109,10.41694 44.69889,6.14038c23.2778,-4.27656 41.00619,-13.95938 39.59748,-21.62718c-0.00459,-0.025 -0.00937,-0.04995 -0.01436,-0.07484c0.15219,-0.02237 0.3063,-0.04781 0.46186,-0.07639c1.26058,-0.23159 15.80227,-2.75965 17.16577,-3.01014c0.11872,-0.02181 0.236,-0.04502 0.35165,-0.06955c1.74401,10.95958 -23.56966,24.72691 -56.75667,30.82397z" data-paper-data="{&quot;index&quot;:null}" fill="#4809a6" fill-rule="nonzero" stroke="none" stroke-width="0"/><path d="M235.89666,157.47727c3.47575,5.51658 6.74635,8.54073 8.77893,10.17553c1.60518,1.29099 10.12975,6.68372 3.52438,18.759c3.20832,-11.25497 0.32624,-16.9851 -9.32112,-19.20608l3.8402,21.96368c1.86353,8.99728 -7.3353,11.17364 -10.01895,9.16154c-2.77543,-2.07293 1.30262,-11.28479 8.63081,-9.77299c0,0 -4.9563,-28.06485 -5.41845,-30.70809c-0.06932,-0.39649 -0.0158,-0.37258 -0.0158,-0.37258z" fill="#4809a6" fill-rule="evenodd" stroke="#4809a6" stroke-width="1.5"/><path d="M243.49302,200.79794c-33.32565,6.12253 -61.97962,2.19374 -64.0335,-8.77407c1.28708,-0.35837 18.51222,-3.42296 18.5289,-3.33218c1.40871,7.6678 21.42109,10.41694 44.69889,6.14038c23.27781,-4.27656 41.00619,-13.95938 39.59747,-21.62718c-0.00459,-0.025 -0.00937,-0.04994 -0.01436,-0.07484c0.15219,-0.02237 0.3063,-0.04781 0.46186,-0.07639c1.26058,-0.23159 15.80227,-2.75964 17.16577,-3.01014c0.11872,-0.02181 0.236,-0.04502 0.35165,-0.06955c1.74401,10.95958 -23.56966,24.72691 -56.75667,30.82397z" data-paper-data="{&quot;index&quot;:null}" fill="#ffffff" fill-rule="nonzero" stroke="none" stroke-width="0"/></g></g></svg>